<svg id="Слой_1" data-name="Слой 1" xmlns="http://www.w3.org/2000/svg" viewBox="0 0 39.57 27.23"><defs><style>.cls-1{fill:#fff;}</style></defs><path class="cls-1" d="M38.74,8.15A15.65,15.65,0,0,0,26,12.1a15.25,15.25,0,0,0-5.25,12,17.56,17.56,0,0,0-1.71,3.2c.85-.87,1.67-1.75,2.5-2.61h0l1.23-.18c.94-.13,1.91-.27,2.86-.49a12.45,12.45,0,0,0,7-4.3,24.52,24.52,0,0,0,2.83-4.85l.12-.22a25.78,25.78,0,0,1,2.8-4.89l1.11-1.41Zm-1.06.93a27.77,27.77,0,0,0-2.93,5.07l-.11.23A24,24,0,0,1,31.93,19,11.29,11.29,0,0,1,25.47,23a26.12,26.12,0,0,1-2.76.48h0c.87-.91,1.75-1.81,2.66-2.67,1.06-1,2.21-2,3.29-3.06s2.17-2.1,3.27-3.17a19.91,19.91,0,0,0-4,2.28,32.57,32.57,0,0,0-3.58,2.89,25.66,25.66,0,0,0-2.53,2.89,14.37,14.37,0,0,1,4.89-9.78A15,15,0,0,1,36.53,9c.4,0,.79,0,1.19,0Z"/><path class="cls-1" d="M19.14,21l0-.24A17.45,17.45,0,0,0,15,6.34,17.65,17.65,0,0,0,.94,0L0,.05.55.81a23.35,23.35,0,0,1,3,6.35l.06.19c.4,1.15.79,2.3,1.22,3.44a14.35,14.35,0,0,0,5.17,7,19.48,19.48,0,0,0,6,2.74c.58.16,1.18.3,1.77.44l.51.13c.47.83,1,1.66,1.44,2.51A15.17,15.17,0,0,0,19.14,21Zm-.74-2.09A32.42,32.42,0,0,0,16.59,15a24.9,24.9,0,0,0-2.65-3.78A19,19,0,0,0,10.61,8c1.61,2.62,3.26,5.1,4.7,7.69.73,1.28,1.41,2.63,2.15,4,.05.08.1.16.14.24-.44-.11-.89-.21-1.33-.34A18.5,18.5,0,0,1,10.57,17a13.44,13.44,0,0,1-4.81-6.55C5.33,9.31,4.94,8.17,4.55,7l-.07-.18A26.42,26.42,0,0,0,1.89,1a16.77,16.77,0,0,1,12.4,6A16.71,16.71,0,0,1,18.4,18.94Z"/></svg>