<svg id="Слой_1" data-name="Слой 1" xmlns="http://www.w3.org/2000/svg" viewBox="0 0 36.91 25.37"><defs><style>.cls-1{fill:#fff;}</style></defs><path class="cls-1" d="M34.17,2.21A9,9,0,0,0,26.51.14a14,14,0,0,0-8,4.46c-.31.34-.59.68-.86,1C15.55,2.3,12.23.44,8.88.73A9,9,0,0,0,2.17,5a14,14,0,0,0-2.11,8.9c.56,6.5,5.09,11.49,10.25,11.49.23,0,.45,0,.68,0a9.12,9.12,0,0,0,6.9-4.59,8.71,8.71,0,0,0,5.53,1.86,10.14,10.14,0,0,0,1.72-.14,14,14,0,0,0,8-4.46C37.73,13,38.2,5.91,34.17,2.21ZM19.26,5.28a12.94,12.94,0,0,1,7.4-4.15A9.5,9.5,0,0,1,28.23,1,7.89,7.89,0,0,1,32.4,2.12a6.8,6.8,0,0,1-1.4,5,9,9,0,0,1-2.54,1.62c-1,.46-2,.88-3,1.3-2,.88-4.34,1.86-5.91,3.8a7,7,0,0,0-1.59,3.27,6.05,6.05,0,0,0,.06,2.4C14.55,16.14,15.09,9.82,19.26,5.28ZM10.91,24.34C6,24.76,1.59,20,1.05,13.8A13,13,0,0,1,3,5.53,8.3,8.3,0,0,1,7.63,2a7.83,7.83,0,0,1,2.89,4.39,7.7,7.7,0,0,1-.34,3c-.26,1-.61,2.07-1,3.13-.65,2.08-1.43,4.53-.9,7a7,7,0,0,0,3.29,4.79A5.5,5.5,0,0,1,10.91,24.34Zm1.12-.2a7.63,7.63,0,0,1-2.18-4.91,13,13,0,0,1,0-1.53,11.62,11.62,0,0,1,.29-1.52c.21-1,.6-2,.94-3.11s.68-2.16.92-3.32a8.1,8.1,0,0,0,0-3.7A6.22,6.22,0,0,0,10,3,9.65,9.65,0,0,0,8.12,1.85,7.9,7.9,0,0,1,9,1.73c3.1-.26,6.15,1.57,8,4.8-3,4.61-3.07,10.23.13,13.53A8.51,8.51,0,0,1,12,24.14Zm20.36-6.81A13,13,0,0,1,25,21.49a8.07,8.07,0,0,1-6.64-1.67,6.92,6.92,0,0,1,2.31-4.92,10.38,10.38,0,0,1,2.56-1.7c.91-.48,2-.89,3-1.31s2.08-.9,3.12-1.46A9.29,9.29,0,0,0,32.2,8.12a5.77,5.77,0,0,0,1-3.57,7.65,7.65,0,0,0-.4-2.14A6.88,6.88,0,0,1,33.5,3C37.12,6.27,36.62,12.72,32.39,17.33Z"/></svg>