<svg id="Слой_1" data-name="Слой 1" xmlns="http://www.w3.org/2000/svg" viewBox="0 0 45.62 15.51"><defs><style>.cls-1{fill:#fff;}</style></defs><path class="cls-1" d="M45.35,5.65a1.54,1.54,0,0,0-1-.6,1.72,1.72,0,0,0-1.5.76,3.56,3.56,0,0,1-2.55,1.61,2.87,2.87,0,0,1-2-.7c-.81-.65-1.58-1.39-2.33-2.11l-.88-.85A13.92,13.92,0,0,0,30.55.52,7.7,7.7,0,0,0,27.92,0h-.23l-.41,0h-.06a6.32,6.32,0,0,0-2.57.83A6.32,6.32,0,0,0,23,2.29s0,.06-.07.08l0,.06-.1.12-.26-.28A5.57,5.57,0,0,0,20,.33a7.73,7.73,0,0,0-7.1,1.42c-1,.8-1.92,1.67-2.82,2.52-.46.42-.91.85-1.44,1.32A19.44,19.44,0,0,1,7.05,6.91a2.6,2.6,0,0,1-3.21,0A10,10,0,0,1,3,6l-.5-.52A1.45,1.45,0,0,0,.66,5.26,1.41,1.41,0,0,0,.08,7l0,.1A14.11,14.11,0,0,0,.75,8.76,10.84,10.84,0,0,0,8,15a14.84,14.84,0,0,0,3.9.53,15.53,15.53,0,0,0,5.57-1.06,11.37,11.37,0,0,0,5.32-3.75,1.27,1.27,0,0,0,.11.13A1,1,0,0,1,23,11h0a8.81,8.81,0,0,0,2,1.92,15.32,15.32,0,0,0,11.2,2.43,10.91,10.91,0,0,0,8.5-6.23c.24-.49.43-1,.62-1.51a4.15,4.15,0,0,0,.23-.83A1.91,1.91,0,0,0,45.35,5.65ZM17.16,13.54a14.12,14.12,0,0,1-8.85.5,9.91,9.91,0,0,1-6.65-5.7,12.21,12.21,0,0,1-.59-1.6l0-.1a.42.42,0,0,1,.16-.53A.43.43,0,0,1,1.42,6a.56.56,0,0,1,.35.17l.47.49a9.78,9.78,0,0,0,1,1,3.6,3.6,0,0,0,4.44,0A21.4,21.4,0,0,0,9.34,6.28c.47-.42.93-.85,1.39-1.28.89-.84,1.81-1.7,2.76-2.47A6.77,6.77,0,0,1,19.71,1.3a4.71,4.71,0,0,1,2.12,1.64l.44.48a6.74,6.74,0,0,0-.79,3.17,7,7,0,0,0,.77,3.22A10.12,10.12,0,0,1,17.16,13.54ZM44.67,6.62c-.08.2-.15.4-.23.59a14,14,0,0,1-.58,1.42,10,10,0,0,1-7.76,5.68A14.34,14.34,0,0,1,25.61,12a7.61,7.61,0,0,1-1.85-1.73h0a1.57,1.57,0,0,1-.19-.26l-.28-.39-.07-.1a5.83,5.83,0,0,1-.75-2.95A5.64,5.64,0,0,1,23.67,3.1L23.76,3l.11-.12c.12-.14.24-.25.35-.37A5.36,5.36,0,0,1,27.8,1a6.7,6.7,0,0,1,2.41.44,12.9,12.9,0,0,1,4.29,3l.87.84c.76.73,1.55,1.49,2.39,2.17a3.87,3.87,0,0,0,2.65.92,4.6,4.6,0,0,0,3.29-2A.91.91,0,0,1,44.28,6c.12,0,.26.15.39.37Z"/></svg>